# xmcd
#
# Track frame offsets: 
#        183
#        18683
#        33920
#        57133
#        73595
#        92548
#        107725
#        124440
#        141815
#        156125
#        174903
#
# Disc length: 2632 seconds
#
# Revision: 1
# Processed by: cddbd v1.5.2PL0 Copyright (c) Steve Scherf et al.
# Submitted via: ExactAudioCopy v1.0b3
#
DISCID=8f0a460b
DTITLE=Summerhill - West Of Here
DYEAR=1990
DGENRE=Rock
TTITLE0=Dont Let It Die
TTITLE1=Here I Am
TTITLE2=If You Hold A Gun
TTITLE3=The Ballad Of Summerhill
TTITLE4=I've Found A Friend
TTITLE5=If I Knew You Better
TTITLE6=Somehow, Somewhere
TTITLE7=Lately
TTITLE8=I Have A Reason
TTITLE9=Last To Find Out
TTITLE10=Wild Horses (Live studio version)
EXTD=Scottish Band - only album.  Released on Polydor 1990.
EXTT0=
EXTT1=
EXTT2=
EXTT3=
EXTT4=
EXTT5=
EXTT6=
EXTT7=
EXTT8=
EXTT9=
EXTT10=
PLAYORDER=
